<?xml version="1.0" standalone="no"?>
<!DOCTYPE svg PUBLIC "-//W3C//DTD SVG 20010904//EN"
 "http://www.w3.org/TR/2001/REC-SVG-20010904/DTD/svg10.dtd">
<svg version="1.0" xmlns="http://www.w3.org/2000/svg"
 width="256.000000pt" height="256.000000pt" viewBox="0 0 256.000000 256.000000"
 preserveAspectRatio="xMidYMid meet">

<g transform="translate(0.000000,256.000000) scale(0.100000,-0.100000)"
fill="#000000" stroke="none">
<path d="M0 1280 l0 -1280 1280 0 1280 0 0 1280 0 1280 -1280 0 -1280 0 0
-1280z m2505 0 l0 -1255 -1227 -3 -1228 -2 0 1260 0 1260 1228 -2 1227 -3 0
-1255z"/>
<path d="M110 1280 l0 -1190 1170 0 1170 0 0 1190 0 1190 -1170 0 -1170 0 0
-1190z m1419 712 c197 -83 321 -266 321 -472 0 -131 -45 -242 -139 -342 l-59
-64 154 -249 c84 -138 154 -253 154 -257 0 -5 -98 -8 -218 -8 l-219 0 -133
215 -132 215 -74 0 -74 0 0 -215 0 -215 -195 0 -195 0 0 711 0 710 378 -3
c366 -3 379 -4 431 -26z"/>
<path d="M1117 1673 c-4 -3 -7 -71 -7 -150 l0 -143 138 0 c131 0 140 1 159 23
11 12 26 32 32 44 17 33 13 123 -7 163 -27 56 -68 70 -198 70 -61 0 -114 -3
-117 -7z"/>
</g>
</svg>
